<svg id="Layer_1" xmlns="http://www.w3.org/2000/svg" viewBox="0 0 165.1 23"><style>.st0{fill:url(#SVGID_1_)}</style><linearGradient id="SVGID_1_" gradientUnits="userSpaceOnUse" x1="-221.563" y1="390.762" x2="-220.563" y2="390.762" gradientTransform="matrix(165.086 0 0 -23.001 36576.992 8999.408)"><stop offset="0" stop-color="#12bdfd"/><stop offset="1" stop-color="#9f79f3"/></linearGradient><path class="st0" d="M125.6 1l-7.7 20.4-.4 1 2 .7.4-1 7.7-20.4.4-1-2-.7-.4 1zM63.8 1L56 21.3l-.4 1 2 .7.4-1 7.7-20.4.4-1-2-.7c0 .1-.3 1.1-.3 1.1zM8.1 1L.4 21.3l-.4 1 2 .7.4-1 7.7-20.4.4-1-2-.6-.4 1zm123.7 0l-7.7 20.4-.4 1 2 .7.4-1 7.7-20.4.4-1-2-.7-.4 1zm18.6 0l-7.7 20.4-.4 1 2 .7.4-1 7.7-20.4.4-1-2-.7-.4 1zm12.3 0L155 21.3l-.4 1 2 .7.4-1 7.7-20.4.4-1-2-.7-.4 1.1zM70 1l-7.7 20.4-.4 1 2 .7.4-1L72 1.7l.4-1-2-.7-.4 1zM14.3 1L6.5 21.3l-.4 1 2 .7.4-1 7.7-20.4.4-1-2-.7-.3 1.1zM138 1l-7.7 20.4-.4 1 2 .7.4-1L140 1.7l.4-1-2-.7-.4 1zM76.2 1l-7.7 20.4-.4 1 2 .7.4-1 7.7-20.4.4-1-2-.7-.4 1zM20.5 1l-7.7 20.4-.4 1 2 .7.4-1 7.7-20.4.4-1-2-.7-.4 1zm123.7 0l-7.7 20.4-.4 1 2 .7.4-1 7.7-20.4.4-1-2-.7-.4 1zm12.4 0l-7.7 20.4-.4 1 2 .7.4-1 7.7-20.4.4-1-2-.7-.4 1zM82.3 1l-7.7 20.4-.4 1 2 .7.4-1 7.7-20.4.4-1-2-.7-.4 1zM26.7 1L19 21.4l-.4 1 2 .7.4-1 7.7-20.4.4-1L27 0l-.3 1zm61.8 0l-7.7 20.4-.4 1 2 .7.4-1 7.7-20.4.4-1-2-.7-.4 1zM32.9 1l-7.7 20.4-.4 1 2 .7.4-1 7.7-20.4.4-1-2-.7-.4 1zm61.8 0L87 21.3l-.4 1 2 .7.4-1 7.7-20.4.4-1-2-.7-.4 1.1zM39 1l-7.7 20.4-.4 1 2 .7.4-1L41 1.7l.4-1-2-.7-.4 1zm61.9 0l-7.7 20.4-.4 1 2 .7.4-1 7.7-20.4.4-1-2-.7-.4 1zM45.2 1l-7.7 20.4-.4 1 2 .7.4-1 7.7-20.4.4-1-2-.7-.4 1zm61.9 0l-7.7 20.4-.4 1 2 .7.4-1 7.7-20.4.4-1-2-.7-.4 1zM51.4 1l-7.7 20.4-.4 1 2 .7.4-1 7.7-20.4.4-1-2-.7-.4 1zm61.9 0l-7.7 20.4-.4 1 2 .7.4-1 7.7-20.4.4-1-2-.7-.4 1zM57.6 1l-7.7 20.4-.4 1 2 .7.4-1 7.7-20.4.4-1-2-.7-.4 1zm61.8 0l-7.7 20.4-.4 1 2 .7.4-1 7.7-20.4.4-1-2-.7-.4 1z"/></svg>